<svg width="300px" height="300px" version="1.1" xmlns="http://www.w3.org/2000/svg" xmlns:xlink="http://www.w3.org/1999/xlink">
  <title>Знак 3.15 - Ограничение длины</title>
  <desc>Этот векторный рисунок принадлежит сайту ruspdd.com.</desc>
  <circle cx="150" cy="150" r="147" fill="#fff" stroke="#000" stroke-width="6" />
  <circle cx="150" cy="150" r="128" fill="none" stroke="#ed1e24" stroke-width="20" />
  <path d="M 74 140 a 6 6 0 0 1 -6 -6 v-27 l 10.5 -19 a 10 10 0 0 1 8 -5 h20.7 a 9 9 0 0 1 9 9 v30.5 a 2 2 0 0 0 2 2 h107 v15.5 z" />
  <path d="M 119 70.5 a 10 10 0 0 1 9 -9 h88.2 a 10 10 0 0 1 9 9 v51.5 h-105.2 a 1 1 0 0 1 -1 -1 z" />
  <path fill="#fff" d="M 104 89.5 a 3 3 0 0 1 3 3 v10 a 3 3 0 0 1 -3 3 h-24 a 3 3 0 0 1 -2.5 -4 l 3.86 -7 a 8 8 0 0 1 7 -5 z" />
  <g id="w">
    <circle cx="97" cy="140" r="16.4" fill="#fff" />
    <circle cx="97" cy="140" r="10.4" fill="#fff" stroke="#000" stroke-width="6.4" />
  </g>
  <use xlink:href="#w" x="91.5" />
  <path d="M 70 200.5 l 29 -29 v58 z m 160 0 l -29 -29 v58 z" />
  <text x="149" y="212" dx="0,-4" text-anchor="middle" font-size="68px" font-weight="bold" font-family="Arial">10<tspan x="149" dy="33" font-size="68%">м</tspan></text></svg>