<svg width="300px" height="300px" version="1.1" xmlns="http://www.w3.org/2000/svg" xmlns:xlink="http://www.w3.org/1999/xlink">
  <title>Знак 6.3.2 - Зона для разворота</title>
  <desc>Этот векторный рисунок принадлежит сайту ruspdd.com.</desc>
  <rect x="2" y="2" rx="25" ry="25" width="296px" height="296px" stroke="#000" fill="#fff" stroke-width="4" />
  <rect x="9" y="9" rx="20" ry="20" width="282px" height="282px" fill="#0a83c8" />
  <path fill="#fff" d="M 192 292 v-83.5 a 22 22 0 1 0 -82 0 v2 h24 l -36.5 61 -36.5 -61 h24 v-2 a 65.5 65.5 0 0 1 107 -50 v-60 a 41 41 0 0 0 -63.5 -33.5 l 15.5 17.5 -71 15 23.5 -69 15.5 17.5 a 67 67 0 0 1 105.5 51 v195 z" />
  <text x="79" y="144" dx="0,-5,6" fill="#fff" text-anchor="middle" font-family="Arial" font-size="46px">15м</text></svg>