<svg width="750px" height="300px" version="1.1" xmlns="http://www.w3.org/2000/svg" xmlns:xlink="http://www.w3.org/1999/xlink">
  <title>Знаки 4.5.4 - 4.5.5 - Вело-пешеходная дорожка с разделением движения</title>
  <desc>Этот векторный рисунок принадлежит сайту ruspdd.com.</desc>
  <g id="R">
    <circle cx="150" cy="150" r="148" fill="#fff" stroke="#000" stroke-width="4" />
    <circle cx="150" cy="150" r="140" fill="#0482cc" />
    <path fill="none" stroke="#fff" stroke-width="10" d="M 150 7 v286" />
  </g>
  <use xlink:href="#R" x="450" />
  <path id="H" fill="#fff" d="M 196 65 a 9.75 11.6 39 1 1 15.8 10 a 2.9 4 39 1 1 -15.8 -10 z m 0 35.5 v-5.8 a 9.2 9.2 0 0 1 2.9 -6.25 l 9.2 -5.8 a 5.8 5.8 0 0 1 5.8 0.4 l 26.4 17.2 a 5 5 0 0 1 1.9 3.33 v22.7 a 4.15 4.15 0 1 1 -12.4 0 v-17.5 a 2.1 2.1 0 0 0 -0.83 -1.9 l -10.75 -6.1 a 0.83 0.83 0 0 0 -0.83 0.83 v22.9 a 6.25 6.25 0 0 1 -2.25 5.5 l -21.66 20.8 a 14.2 14.2 0 0 0 -4.6 7.5 l -7.6 27.1 a 4.15 4.15 0 1 1 -12.5 -3.83 l 9.1 -33.33 a 18.33 18.33 0 0 1 6.1 -9.16 l 10.4 -9.4 a 7.5 7.5 0 0 0 2.33 -5.83 z m -3.5 4 v17.25 l -11.33 10.25 a 4.15 4.15 0 1 1 -8.33 -9.16 z m 22.5 31.5 l 28.5 42.9 a 4.15 4.15 0 0 1 -11 6.9 l -27 -41.16 z" />
  <use xlink:href="#H" x="334" />
  <g id="V">
    <path fill="#fff" d="M 99 137 c 1.1 0.75 6.38 9.26 7.62 11.11 1.27 1.9 2.52 3.75 3.87 5.59 1.11 1.52 2.99 3.95 3.81 5.51 h-24.73 l 9.42 -22.20 z m -39.19 -2.87 h35.27 l -10.20 24.24 -26.97 -20.52 1.9 -3.7 z m -5.05 -16.23 c 0 -6.43 15.50 0 15.50 -4.73 v-0.71 c 0 -0.95 -1.14 -1.72 -2.15 -1.72 h-9.61 c -4.16 0 -7.75 2.84 -7.75 6.88 v0.71 c 0 6.29 6.45 5.80 6.45 9.18 v0.28 c 0 1.36 -7.09 15.28 -8.12 17.85 -1.15 2.86 -2.73 6.18 -4.12 8.93 -1.1 2.19 -1.23 2.02 -3.25 3.20 -0.96 0.55 -3.58 1.62 -3.58 2.87 v0.86 c 0 0.80 0.94 1.57 1.72 1.57 h0.28 c 0.98 0 5.25 -2.58 5.98 -3.19 2.03 -1.7 2.29 -3.18 3.48 -5.55 0.95 -1.9 2.07 -4.28 2.91 -6.26 0.7 -1.65 2.49 -4.78 2.82 -6.21 0.63 0.17 13.21 9.94 14.90 11.21 2.51 1.89 4.9 3.71 7.42 5.63 1.38 1.05 6.15 5.25 7.8 5.25 h32.57 c 1.24 0 2.72 -1.44 2.72 -2.72 0 -1.71 -3.79 -6.33 -4.79 -7.83 -1.62 -2.46 -3.46 -5.06 -5.22 -7.4 -3.59 -4.77 -7.15 -9.62 -10.5 -14.61 l 2 -4.73 c 2.36 0 4.31 -0.59 4.31 -2.86 v-0.57 c 0 -1.58 -1.59 -2.87 -3.15 -2.87 l -13.92 0 c -1.68 0 -3.44 1.30 -3.44 2.87 0 1.92 1.32 3.44 3.15 3.44 h9.04 c 0 0.59 -0.93 2.87 -1.43 2.87 h-35.73 l 0.3 -1.86 c 0.3 -2.07 -1.65 -4.57 -2.71 -5.49 -1.41 -1.23 -3.91 -1.61 -3.91 -4.27 z" />
    <circle id="w" cx="40" cy="161" r="19" fill="none" stroke="#fff" stroke-width="4" />
    <use xlink:href="#w" x="77" />
  </g>
  <use xlink:href="#V" x="594" />
  <g text-anchor="middle" font-size="25px" font-family="Arial" font-weight="bold">
    <text x="300" y="50">4.5.4</text>
    <text x="450" y="50">4.5.5</text>
  </g></svg>