<svg width="300px" height="263px" version="1.1" xmlns="http://www.w3.org/2000/svg" xmlns:xlink="http://www.w3.org/1999/xlink">
  <title>Знак 1.14 - Крутой подъем</title>
  <desc>Этот векторный рисунок принадлежит сайту ruspdd.com.</desc>
  <path fill="#fff" stroke="#000" stroke-width="4" d="M 62 130 l 67.5 -114 a 23 23 0 0 1 41 0 l 122 208 a 24 23 0 0 1 -22 35 h -242 a 24 23 0 0 1 -22 -35 z" />
  <path fill="#e61e21" d="M 69.3 132 l 67.5 -114 a 15 15 0 0 1 26.2 0 l 124 210 a 17.3 16.4 0 0 1 -14 24.3 h -247 a 17.3 16.4 0 0 1 -14 -24.3 l 57.3 -96 h 19.2 l -57.7 97.2 a 6 5 0 0 0 5 7 h 228 a 6 5 0 0 0 5 -7 l -115.6 -194 a 4.5 4.5 0 0 0 -7 0 l -57.8 97 z" />
  <path d="M 265.5 232 l -47 -78.5 -181 77.5 a 1 1 0 0 0 0 2 h 227 a 1 1 0 0 0 1 -1 z" />
  <path stroke="#fff" d="M 109.7 192.5 l -14.3 -32.7 -4 6 -5.5 -3.3 5.6 -14 7.6 -3.4 19.3 43.5 z" />
  <ellipse transform="rotate(-23)" cx="62" cy="195.7" rx="12" ry="20" stroke="#000" fill="none" stroke-width="8.2" />
  <circle id="w" cx="159.5" cy="127" r="5.8" fill="#fff" stroke="#000" stroke-width="5" />
  <use xlink:href="#w" x="29.6" y="20.7" />
  <path d="M 172.85 164 l -3.5 -51 6 -2.6 3.5 51 z" />
<text x="50%" y="95%" dx="1,1,1,1,1,1,1,1,1,1" fill="white" fill-opacity="20%" stroke-opacity="5%" stroke="black" stroke-width="2" text-anchor="middle" font-size="30px" font-weight="bold" font-family="Arial">ruspdd.com</text></svg>