<svg width="300px" height="263px" version="1.1" xmlns="http://www.w3.org/2000/svg" xmlns:xlink="http://www.w3.org/1999/xlink">
  <title>Знак 1.18 - Выброс гравия</title>
  <desc>Этот векторный рисунок принадлежит сайту ruspdd.com.</desc>
  <path fill="#fff" stroke="#000" stroke-width="4" d="M 62 130 l 67.5 -114 a 23 23 0 0 1 41 0 l 122 208 a 24 23 0 0 1 -22 35 h -242 a 24 23 0 0 1 -22 -35 z" />
  <path d="M 49 195.5 h63 a 17 14 0 0 0 14 -12 v-18.5 a 12 11 0 0 0 -10 -10.5 a 3 3 0 0 1 -3 -3 l -7.5 -23 a 8 9 0 0 0 -8 -6 h-5 l -5 9 h5.7 a 4 4 0 0 1 4.5 3 l 6.5 19.5 h-31 z" />
  <path fill="#e61e21" d="M 69.3 132 l 67.5 -114 a 15 15 0 0 1 26.2 0 l 124 210 a 17.3 16.4 0 0 1 -14 24.3 h -247 a 17.3 16.4 0 0 1 -14 -24.3 l 57.3 -96 h 19.2 l -57.7 97.2 a 6 5 0 0 0 5 7 h 228 a 6 5 0 0 0 5 -7 l -115.6 -194 a 4.5 4.5 0 0 0 -7 0 l -57.8 97 z" />
  <path d="M 100.8 198 h16 v13 a 8 8 0 0 1 -16 0 z" />
  <path d="M 120 216 l 29.5 -37.5 5.7 5 -31.4 35.5 z" />
  <path d="M 134.3 215.5 l 62.5 -46.5 5 8 -65 42.3 z" />
  <path d="M 159.8 214.8 l 29 -11.3 2.6 7.3 -30 8.5 z" />
  <circle cx="106" cy="172.4" r="7.4" fill="#fff" />
  <circle cx="159.5" cy="145.2" r="6.7" />
  <circle cx="163.7" cy="166.7" r="10.3" />
  <circle cx="212" cy="164" r="10.8" />
  <circle cx="202.2" cy="204.2" r="9.7" />
  <circle cx="221.8" cy="195.2" r="8.3" />
<text x="50%" y="95%" dx="1,1,1,1,1,1,1,1,1,1" fill="white" fill-opacity="20%" stroke-opacity="5%" stroke="black" stroke-width="2" text-anchor="middle" font-size="30px" font-weight="bold" font-family="Arial">ruspdd.com</text></svg>