<svg width="300px" height="690px" version="1.1" xmlns="http://www.w3.org/2000/svg" xmlns:xlink="http://www.w3.org/1999/xlink">
  <title>Знаки 8.21 - Вид маршрутного транспортного средства</title>
  <desc>Этот векторный рисунок принадлежит сайту ruspdd.com.</desc>
  <g id="fr">
    <rect x="3" y="3" rx="16" ry="16" width="294px" height="144px" fill="#fff" stroke="#000" stroke-width="6" />
    <path fill="none" stroke="#000" stroke-width="15" d="M 52 48 v52 m -26 -26 h52" />
  </g>
  <use xlink:href="#fr" y="250" />
  <use xlink:href="#fr" y="500" />
  <text x="108" y="92" text-anchor="start" font-weight="bold" font-family="Arial" font-size="48px">МЕТРО</text>
  <path d="M 120 352 a 9 9 0 0 1 -9 -9 v-25 a 17 17 0 0 1 3 -9 l 11 -19 a 9 9 0 0 1 7.5 -4.5 h129 a 9 9 0 0 1 7.5 4.5 l 8 23 v30 a 9 9 0 0 1 -9 9 z" />
  <g fill="#fff">
    <path d="M 143 292 a 2 2 0 0 1 2 2 v17 a 2 2 0 0 1 -2 2 h-18 a 3.5 3.5 0 0 1 -3 -5 l 8.7 -15 a 3 3 0 0 1 2 -1 z" />
    <rect id="rt" x="154" y="292" rx="2" ry="2" width="28px" height="21px" />
    <use xlink:href="#rt" x="37" />
    <path d="M 231 292 a 2 2 0 0 0 -2 2 v17 a 2 2 0 0 0 2 2 h26.5 a 3.5 3.5 0 0 0 3 -5 l -5.2 -15 a 3 3 0 0 0 -2 -1 z" />
  </g>
  <g id="w">
    <circle cx="142" cy="351" r="18.2" fill="#fff" />
    <circle cx="142" cy="351" r="11.2" fill="#fff" stroke="#000" stroke-width="8.4" />
  </g>
  <use xlink:href="#w" x="97" />
  <path d="M 111 616 h14 a 12 12 0 0 1 13 -13 h94 a 12 12 0 0 1 13 13 h14 v-33 l -13 -22 h-122 l -13 22 z" />
  <path id="w2" d="M 147 618.2 a 8.7 8.7 0 1 0 0 -6 h-1.2 a 8.7 8.7 0 1 0 0 6 z" />
  <use xlink:href="#w2" x="77" />
  <path d="M 167 616 a 13 13 0 0 0 -5 -10.4 h46 a 13 13 0 0 0 -5 10.4 z" />
  <path stroke="#000" d="M 184.5 518 h3.5 v7 l 22 18 -12 14 h-27 l -12 -14 22 -18 v-7 h3.7 v10.5 l -18 15 7.7 9.3 h21 l 7.7 -9.3 -18 -15 h-1 v-10.5 z" />
  <g fill="#fff">
    <path d="M 120 584.5 a 3 3 0 0 1 -3 -3 l 9 -15 h6 a 3 3 0 0 1 3 3 v12 a 3 3 0 0 1 -3 3 z" />
    <rect id="R" x="141" y="566.5" rx="3" ry="3" width="25" height="18" />
    <use xlink:href="#R" x="31.5" />
    <use xlink:href="#R" x="63" />
    <path d="M 238 584.5 a 3 3 0 0 1 -3 -3 v-12  a 3 3 0 0 1 3 -3 h6 l 9 15 a 3 3 0 0 1 -3 3 z" />
  </g>
  <g text-anchor="middle" font-size="26px" font-family="Arial" font-weight="bold">
    <text x="150" y="180">8.21.1</text>
    <text x="150" y="430">8.21.2</text>
    <text x="150" y="680">8.21.3</text>
  </g>
</svg>