<svg width="750px" height="940px" version="1.1" xmlns="http://www.w3.org/2000/svg" xmlns:xlink="http://www.w3.org/1999/xlink">
  <title>Знаки 8.6.2 - 8.6.9 - Способ постановки легковых автомобилей и мотоциклов на околотротуарной стоянке</title>
  <desc>Этот векторный рисунок принадлежит сайту ruspdd.com.</desc>
  <defs>
    <rect id="bg" width="100%" height="100%" fill="#fff" />
    <path id="FL" d="M -100 123 h247 v-14 h247 v50 h-494 z" />
    <g id="wh">
      <circle cx="66" cy="107" r="17.7" fill="#fff" />
      <circle cx="66" cy="107" r="11.7" fill="#fff" stroke="#000" stroke-width="7" />
    </g>
    <pattern id="p2" width="1" height="1">
      <use xlink:href="#bg" />
      <path d="M 122 30 l 33 -6.9 a 8 8 0 0 1 7.5 3 l 13.5 23 a 3.5 3.5 0 0 0 3 1 a 5 5 0 0 1 4 3 l 5.3 23 a 7 7 0 0 1 -5 8 l -81.6 17.4 a 7 7 0 0 1 -8 -5 l -5 -23 a 5 5 0 0 1 3 -5 a 4 4 0 0 0 2 -4 l 2 -23 a 8 8 0 0 1 5 -7 l 26 -5.4 1.5 7 -24.2 5.1 a 2 2 0 0 0 -1.5 2 l -1.83 21 a 1.3 1.3 0 0 0 1.5 1.5 l 65 -13.7 a 1.7 1.7 0 0 0 1 -2.5 l -10.6 -18 a 2.5 2.5 0 0 0 -3 -1 l -32 6.7 z" />
      <path id="t" d="M 101 103.5 l 17.5 -3.73 2.5 11.5 a 1 1 0 1 1 -17.5 3.73 z" />
      <use xlink:href="#t" x="66" y="-14" />
      <use xlink:href="#FL" />
    </pattern>
    <pattern id="p3" width="1" height="1">
      <use xlink:href="#bg" />
      <path d="M 156 57 a 8 8 0 0 1 6 -7 l 7.5 -23 a 9 9 0 0 1 7 -7 h56 a 9 9 0 0 1 7 7 l 7.5 23 a 8 8 0 0 1 6 7 v21 a 9 9 0 0 1 -9 7 h-79 a 9 9 0 0 1 -9 -7 z" />
      <path fill="#fff" d="M 170.5 50 a 1 1 0 0 1 -1 -1 l 6.5 -20 a 4 4 0 0 1 2 -2 h53 a 4 4 0 0 1 2 2 l 6.5 20 a 1 1 0 0 1 -1 1 z" />
      <path id="w" d="M 161.7 86 h18 v12.5 a 1 1 0 0 1 -18 0 z" />
      <use xlink:href="#w" x="67" />
      <use xlink:href="#FL" />
    </pattern>
    <pattern id="p4" width="1" height="1">
      <use xlink:href="#bg" />
      <path d="M 83 107.2 h64 l 36 -2 a 8 8 0 0 0 7.5 -6.6 l 3 -14.6 a 10 10 0 0 0 -2 -10 l -22.7 -27.5 a 10 10 0 0 0 -8 -3.5 h-43.5 a 11 11 0 0 0 -8 3.5 l -20.5 22.5 a 12 12 0 0 1 -8 4 l -32 4.2 a 8 8 0 0 0 -7 6 v15.5 a 8 8 0 0 0 5.5 5.5 z" />
      <use xlink:href="#wh" />
      <use xlink:href="#wh" x="98.5" />
      <path fill="#fff" d="M 162.5 50 a 5 5 0 0 1 5 5 l 2 13 a 5 5 0 0 1 -5 5 h-64.5 a 3 3 0 0 1 -2 -5 l 14.5 -16 a 7 7 0 0 1 5 -2 z" />
      <use xlink:href="#FL" x="36" />
    </pattern>
    <pattern id="p5" width="1" height="1">
      <use xlink:href="#bg" />
      <path d="M 147 107.2 h-64 l -36 -2 a 8 8 0 0 1 -7.5 -6.6 l -3 -14.6 a 10 10 0 0 1 2 -10 l 22.7 -27.5 a 10 10 0 0 1 8 -3.5 h43.5 a 11 11 0 0 1 8 3.5 l 20.5 22.5 a 12 12 0 0 0 8 4 l 32 4.2 a 8 8 0 0 1 7 6 v15.5 a 8 8 0 0 1 -5.5 5.5 z" />
      <use xlink:href="#wh" />
      <use xlink:href="#wh" x="98.5" />
      <path fill="#fff" d="M 67.5 50 a 5 5 0 0 0 -5 5 l -2 13 a 5 5 0 0 0 5 5 h64.5 a 3 3 0 0 0 2 -5 l -14.5 -16 a 7 7 0 0 0 -5 -2 z" />
      <use xlink:href="#FL" x="36" />
    </pattern>
    <pattern id="p6" width="1" height="1">
      <use xlink:href="#bg" />
      <path d="M 114 104.7 l 64 -8.8 36 -8 a 9 9 0 0 0 6.3 -8 l 0.5 -16 a 8 8 0 0 0 -3 -7 l -25.7 -23.2 a 12 12 0 0 0 -9 -3.2 l -43.5 6 a 12 12 0 0 0 -8 5 l -17 25 a 13 13 0 0 1 -8 5 l -32 9.5 a 7 7 0 0 0 -4.2 8 l 2.5 14 a 7.5 7.5 0 0 0 7.2 3.2 z" />
      <use xlink:href="#wh" x="31" />
      <use xlink:href="#wh" x="129.5" y="-14" />
      <path fill="#fff" d="M 185 37 a 5.5 5.5 0 0 1 6 4 l 3.5 12 a 5 5 0 0 1 -4 6 l -63 9.5 a 4 4 0 0 1 -3 -6 l 11.2 -16.5 a 7 7 0 0 1 5 -3 z" />
      <use xlink:href="#FL" />
    </pattern>
    <pattern id="p7" width="1" height="1">
      <use xlink:href="#bg" />
      <path d="M 179 96 l -64 8.7 -36 3 a 8 8 0 0 1 -8.5 -6 l -5 -14 a 12 12 0 0 1 2 -11 l 17 -28 a 10 10 0 0 1 8 -5 l 44 -6.2 a 11 11 0 0 1 8 2.5 l 22.7 18.7 a 11 11 0 0 0 7 3 l 34 -0.5 a 10 10 0 0 1 8.5 7 l 1.3 13.7 a 8 8 0 0 1 -5.7 5.9 z" />
      <use xlink:href="#wh" x="31" />
      <use xlink:href="#wh" x="129.5" y="-14" />
      <path fill="#fff" d="M 92.5 50 a 5 5 0 0 0 -5 5 l -0.5 12.5 a 6 6 0 0 0 6 6 l 62.3 -9 a 4 4 0 0 0 1.5 -6.5 l -15.5 -13 a 7 7 0 0 0 -5 -1.5 z" />
      <use xlink:href="#FL" />
    </pattern>
    <pattern id="p8" width="1" height="1">
      <use xlink:href="#bg" />
      <path d="M 156 93.2 h64 l 36 -2 a 8 8 0 0 0 7.5 -6.6 l 3 -14.6 a 10 10 0 0 0 -2 -10 l -22.7 -27.5 a 10 10 0 0 0 -8 -3.5 h-43.5 a 11 11 0 0 0 -8 3.5 l -20.5 22.5 a 12 12 0 0 1 -8 4 l -32 4.2 a 8 8 0 0 0 -7 6 v15.5 a 8 8 0 0 0 5.5 5.5 z" />
      <use xlink:href="#wh" x="73" y="-14" />
      <use xlink:href="#wh" x="171.5" y="-14" />
      <path fill="#fff" d="M 235.5 36 a 5 5 0 0 1 5 5 l 2 13 a 5 5 0 0 1 -5 5 h-64.5 a 3 3 0 0 1 -2 -5 l 14.5 -16 a 7 7 0 0 1 5 -2 z" />
      <use xlink:href="#FL" x="-38" />
    </pattern>
    <pattern id="p9" width="1" height="1">
      <use xlink:href="#bg" />
      <path d="M 220 93.2 h-64 l -36 -2 a 8 8 0 0 1 -7.5 -6.6 l -3 -14.6 a 10 10 0 0 1 2 -10 l 22.7 -27.5 a 10 10 0 0 1 8 -3.5 h43.5 a 11 11 0 0 1 8 3.5 l 20.5 22.5 a 12 12 0 0 0 8 4 l 32 4.2 a 8 8 0 0 1 7 6 v15.5 a 8 8 0 0 1 -5.5 5.5 z" />
      <use xlink:href="#wh" x="73" y="-14" />
      <use xlink:href="#wh" x="171.5" y="-14" />
      <path fill="#fff" d="M 140.5 36 a 5 5 0 0 0 -5 5 l -2 13 a 5 5 0 0 0 5 5 h64.5 a 3 3 0 0 0 2 -5 l -14.5 -16 a 7 7 0 0 0 -5 -2 z" />
      <use xlink:href="#FL" x="-38" />
    </pattern>
    <rect id="pic" x="3" y="3" rx="16" ry="16" width="294px" height="144px" stroke="#000" stroke-width="6" />
  </defs>
  <use xlink:href="#pic" fill="url(#p2)" />
  <use xlink:href="#pic" fill="url(#p3)" x="450" />
  <use xlink:href="#pic" fill="url(#p4)" y="250" />
  <use xlink:href="#pic" fill="url(#p5)" y="250" x="450" />
  <use xlink:href="#pic" fill="url(#p6)" y="500" />
  <use xlink:href="#pic" fill="url(#p7)" y="500" x="450" />
  <use xlink:href="#pic" fill="url(#p8)" y="750" />
  <use xlink:href="#pic" fill="url(#p9)" y="750" x="450" />
  <g text-anchor="middle" font-family="Arial" font-weight="bold" font-size="26px">
    <text x="150" y="180">8.6.2</text>
    <text x="600" y="180">8.6.3</text>
    <text x="150" y="430">8.6.4</text>
    <text x="600" y="430">8.6.5</text>
    <text x="150" y="680">8.6.6</text>
    <text x="600" y="680">8.6.7</text>
    <text x="150" y="930">8.6.8</text>
    <text x="600" y="930">8.6.9</text>
  </g></svg>