<svg width="300px" height="263px" version="1.1" xmlns="http://www.w3.org/2000/svg" xmlns:xlink="http://www.w3.org/1999/xlink">
  <title>Знак 1.28 - Падение камней</title>
  <desc>Этот векторный рисунок принадлежит сайту ruspdd.com.</desc>
  <path fill="#fff" stroke="#000" stroke-width="4" d="M 62 130 l 67.5 -114 a 23 23 0 0 1 41 0 l 122 208 a 24 23 0 0 1 -22 35 h -242 a 24 23 0 0 1 -22 -35 z" />
  <path fill="#e61e21" d="M 69.3 132 l 67.5 -114 a 15 15 0 0 1 26.2 0 l 124 210 a 17.3 16.4 0 0 1 -14 24.3 h -247 a 17.3 16.4 0 0 1 -14 -24.3 l 57.3 -96 h 19.2 l -57.7 97.2 a 6 5 0 0 0 5 7 h 228 a 6 5 0 0 0 5 -7 l -115.6 -194 a 4.5 4.5 0 0 0 -7 0 l -57.8 97 z" />
  <path d="M 100.5 228 l 9.5 -15 a 49 49 0 0 1 19 -16.5 36 36 0 0 0 14 -14 51 51 0 0 1 13.5 -23 37 37 0 0 0 10.5 -26 44 44 0 0 1 7.5 -22.8 l 8 -11 76.5 128.3 z" />
  <circle cx="87.4" cy="206.3" r="16.6" />
  <circle cx="123.4" cy="183.1" r="11.3" />
  <circle cx="109.6" cy="162.4" r="7.1" />
  <circle cx="134.8" cy="148.4" r="8.5" />
  <circle cx="152.9" cy="134.8" r="7.8" />
  <circle cx="162" cy="107.3" r="6.4" /></svg>