<svg width="300px" height="263px" version="1.1" xmlns="http://www.w3.org/2000/svg" xmlns:xlink="http://www.w3.org/1999/xlink">
  <title>Знак 1.29 - Боковой ветер</title>
  <desc>Этот векторный рисунок принадлежит сайту ruspdd.com.</desc>
  <path fill="#fff" stroke="#000" stroke-width="4" d="M 62 130 l 67.5 -114 a 23 23 0 0 1 41 0 l 122 208 a 24 23 0 0 1 -22 35 h -242 a 24 23 0 0 1 -22 -35 z" />
  <path fill="#e61e21" d="M 69.3 132 l 67.5 -114 a 15 15 0 0 1 26.2 0 l 124 210 a 17.3 16.4 0 0 1 -14 24.3 h -247 a 17.3 16.4 0 0 1 -14 -24.3 l 57.3 -96 h 19.2 l -57.7 97.2 a 6 5 0 0 0 5 7 h 228 a 6 5 0 0 0 5 -7 l -115.6 -194 a 4.5 4.5 0 0 0 -7 0 l -57.8 97 z" />
  <path d="M 109.5 228 h13 v-47 h88 a 11 11 0 0 0 5 -21 l -93 -29.2 v-8.5 a 6 6 0 0 0 -13 0 v7.5 a 25.6 25.6 0 0 0 0 50 z" />
  <g fill="#fff">
    <circle cx="211" cy="170" r="7" />
    <path d="M 186 177 c -8 -5 -8 -18 7.5 -21 -38 -13.5 -36 17 -23 21 z" />
    <path d="M 148 177 c -7 -8 -10 -25 12 -32 -38 -11 -35 25 -24.5 32 z" />
    <path d="M 114 175 a 17 21 0 0 1 13 -38 l -11 -2 a 20 20 0 0 0 -9 38 z" />
  </g>
<text x="50%" y="95%" dx="1,1,1,1,1,1,1,1,1,1" fill="white" fill-opacity="20%" stroke-opacity="5%" stroke="black" stroke-width="2" text-anchor="middle" font-size="30px" font-weight="bold" font-family="Arial">ruspdd.com</text></svg>