<svg width="400px" height="513px" version="1.1" xmlns="http://www.w3.org/2000/svg" xmlns:xlink="http://www.w3.org/1999/xlink">
  <title>Знаки 6.15 - Направление движения для грузовых автомобилей</title>
  <desc>Этот векторный рисунок принадлежит сайту ruspdd.com.</desc>
  <g id="frame">
    <rect x="2" y="2" rx="15" ry="15" width="396px" height="127px" stroke="#000" fill="#fff" stroke-width="3" />
    <rect x="6" y="6" rx="12" ry="12" width="388px" height="119px" fill="#0a83c8" />
  </g>
  <use xlink:href="#frame" y="191" />
  <use xlink:href="#frame" y="382" />
  <g fill="#fff">
    <path d="M 69 26 l -36.5 61 h23 v39 h27 v-39 h23 z" />
    <path d="M 371 256.5 l -61 -36 v23 h-40 v26 h40 v23 z" />
    <path d="M 29 447.5 l 61 -36 v23 h40 v26 h-40 v23 z" />
  </g>
  <g id="truck">
    <path fill="#fff" d="M 171 99 a 6 6 0 0 1 -6 -6 v-32 l 13 -21 a 10 10 0 0 1 7 -5 h29 a 7 7 0 0 1 7 7 v40 a 2 2 0 0 0 2 2 h116 v15 z" />
    <path fill="#fff" d="M 225.5 26 a 10 10 0 0 1 9 -9 h95.5 a 10 10 0 0 1 9 9 v53.5 h-112.5 a 1 1 0 0 1 -1 -1 z" />
    <path fill="#0a83c8" d="M 205 45.5 a 3 3 0 0 1 3 3 v12 a 3 3 0 0 1 -3 3 h-26 a 3.5 3.5 0 0 1 -3 -5 l 5 -8 a 8 8 0 0 1 7 -5 z" />
  </g>
  <g id="w">
    <circle cx="197" cy="99.5" r="17.4" fill="#0a83c8" />
    <circle cx="197" cy="99.5" r="11.2" fill="#0a83c8" stroke="#fff" stroke-width="6.4" />
  </g>
  <use xlink:href="#w" x="109" />
  <path fill="#fff" d="M 217.5 290 a 6 6 0 0 0 6 -6 v-32 l -13 -21 a 10 10 0 0 0 -7 -5 h-29 a 7 7 0 0 0 -7 7 v40 a 2 2 0 0 1 -2 2 h-116 v15 z" />
  <path fill="#fff" d="M 163 217 a 10 10 0 0 0 -9 -9 h-95.5 a 10 10 0 0 0 -9 9 v53.5 h112.5 a 1 1 0 0 0 1 -1 z" />
  <path fill="#0a83c8" d="M 183 236.5 a 3 3 0 0 0 -3 3 v12 a 3 3 0 0 0 3 3 h26 a 3.5 3.5 0 0 0 3 -5 l -5 -8 a 8 8 0 0 0 -7 -5 z" />
  <use xlink:href="#w" y="191" x="-115" />
  <use xlink:href="#w" y="191" x="-6" />
  <use xlink:href="#truck" y="382" x="12" />
  <use xlink:href="#w" y="382" x="12" />
  <use xlink:href="#w" y="382" x="121" />
</svg>