<svg width="300px" height="263px" version="1.1" xmlns="http://www.w3.org/2000/svg" xmlns:xlink="http://www.w3.org/1999/xlink">
  <title>Знак 1.22 - Приближение к пешеходному переходу</title>
  <desc>Этот векторный рисунок принадлежит сайту ruspdd.com.</desc>
  <path fill="#fff" stroke="#000" stroke-width="4" d="M 62 130 l 67.5 -114 a 23 23 0 0 1 41 0 l 122 208 a 24 23 0 0 1 -22 35 h -242 a 24 23 0 0 1 -22 -35 z" />
  <path fill="#e61e21" d="M 69.3 132 l 67.5 -114 a 15 15 0 0 1 26.2 0 l 124 210 a 17.3 16.4 0 0 1 -14 24.3 h -247 a 17.3 16.4 0 0 1 -14 -24.3 l 57.3 -96 h 19.2 l -57.7 97.2 a 6 5 0 0 0 5 7 h 228 a 6 5 0 0 0 5 -7 l -115.6 -194 a 4.5 4.5 0 0 0 -7 0 l -57.8 97 z" />
  <path d="M 137 72 a 11.7 13.9 39 1 1 19 12 a 3.5 4.8 39 1 1 -19 -12 z m 1 42 v-7 a 11 11 0 0 1 3.5 -7.5 l 11 -7 a 7 7 0 0 1 7 0.5 l 31.7 20.6 a 6 6 0 0 1 2.3 4 v27.2 a 5 5 0 1 1 -14.9 0 v-21 a 2.5 2.5 0 0 0 -1 -2.3 l -12.9 -7.3 a 1 1 0 0 0 -1 1 v27.5 a 7.5 7.5 0 0 1 -2.7 6.6 l -26 25 a 17 17 0 0 0 -5.5 9 l -9.1 32.5 a 5 5 0 1 1 -15 -4.6 l 10.9 -40 a 22 22 0 0 1 7.3 -11 l 12.5 -11.3 a 9 9 0 0 0 2.8 -7 z m -2.8 5.9 v20.7 l -13.6 12.3 a 5 5 0 1 1 -10 -11 z m 24.5 38.7 l 34.2 51.5 a 5 5 0 0 1 -13.2 8.3 l -32.4 -49.4 z m -96 69.7 h22.5 l 12.5 -25 h-16.5 z m 70.3 0 h25.5 l -4.3 -25 h-16.5 z m 72.7 0 h24 l -18 -25 h-17.4 z" />
</svg>