<svg width="300px" height="150px" version="1.1" xmlns="http://www.w3.org/2000/svg" xmlns:xlink="http://www.w3.org/1999/xlink">
  <defs>
    <pattern id="p" width="1" height="1">
      <rect width="100%" height="100%" fill="#fff" />
      <path d="M 0 123 h202 v-14 h92 v50 h-294 z" />
    </pattern>
  </defs>
  <rect x="3" y="3" rx="16" ry="16" width="294px" height="144px" fill="url(#p)" stroke="#000" stroke-width="6" />
  <path d="M 102 74 a 8 8 0 0 1 6 -7 l 7.5 -23 a 9 9 0 0 1 7 -7 h56 a 9 9 0 0 1 7 7 l 7.5 23 a 8 8 0 0 1 6 7 v21 a 9 9 0 0 1 -9 7 h-79 a 9 9 0 0 1 -9 -7 z" />
  <path fill="#fff" d="M 116.5 67 a 1 1 0 0 1 -1 -1 l 6.5 -20 a 4 4 0 0 1 2 -2 h53 a 4 4 0 0 1 2 2 l 6.5 20 a 1 1 0 0 1 -1 1 z" />
  <path id="w" d="M 107.7 103 h18 v12.5 a 1 1 0 0 1 -18 0 z" />
  <use xlink:href="#w" x="67" />
</svg>