<svg width="300px" height="450px" version="1.1" xmlns="http://www.w3.org/2000/svg" xmlns:xlink="http://www.w3.org/1999/xlink">
  <title>Знак 5.29 - Зона регулируемой стоянки</title>
  <desc>Этот векторный рисунок принадлежит сайту ruspdd.com.</desc>
  <defs>
    <pattern id="p" width="1" height="1">
      <text x="139" y="72" text-anchor="middle" font-size="62px" font-weight="bold" font-family="Arial">ЗОНА</text>
      <rect x="34" y="100" rx="8" ry="8" width="210px" height="210px" fill="#0a83c8" />
      <path fill="#fff" d="M 94.5 123.5 h59 a 1 1 0 0 1 0 104 h-39 v-22 h39.5 a 22 22 0 0 0 0 -60 h-36.5 v141 h-23 z" />
      <path d="M 33 397.4 h106 v-10 h106 v28 h-212 z" />
      <path d="M 125 332 l 19.5 -4.1 a 5 5 0 0 1 5.5 2 l 10 16 a 3 3 0 0 0 2 1 a 3.5 3.5 0 0 1 3 3 l 3.5 14.8 a 5 5 0 0 1 -4 6.5 l -56.5 12 a 5 5 0 0 1 -6.5 -4 l -3.5 -14.8 a 4 4 0 0 1 2 -4 a 4 4 0 0 0 2 -4 l 1.2 -15 a 6 6 0 0 1 4 -5.7 l 19.5 -4.1 1.3 5 -18.5 3.9 a 2 2 0 0 0 -1.5 2 l -1.1 13.5 a 1.3 1.3 0 0 0 1.5 1.5 l 44.7 -9.375 a 1.7 1.7 0 0 0 1 -2.5 l -7.1 -11.4 a 2.5 2.5 0 0 0 -3 -1 l -19.5 4.1 z" />
      <path id="t" d="M 107 384.6 l 12 -2.55 1.7 8 a 1 1 0 1 1 -12 2.55 z" />
      <use xlink:href="#t" x="47" y="-10" />
    </pattern>
  </defs>
  <rect x="1.5" y="1.5" rx="18" ry="18" width="297px" height="445px" fill="#fff" stroke="#000" stroke-width="3" />
  <rect x="11" y="11" rx="9" ry="9" width="278px" height="426px" fill="url(#p)" stroke="#000" stroke-width="5" /></svg>