<svg width="300px" height="263px" version="1.1" xmlns="http://www.w3.org/2000/svg" xmlns:xlink="http://www.w3.org/1999/xlink">
  <title>Знак 1.27 - Дикие животные</title>
  <desc>Этот векторный рисунок принадлежит сайту ruspdd.com.</desc>
  <path fill="#fff" stroke="#000" stroke-width="4" d="M 62 130 l 67.5 -114 a 23 23 0 0 1 41 0 l 122 208 a 24 23 0 0 1 -22 35 h -242 a 24 23 0 0 1 -22 -35 z" />
  <path fill="#e61e21" d="M 69.3 132 l 67.5 -114 a 15 15 0 0 1 26.2 0 l 124 210 a 17.3 16.4 0 0 1 -14 24.3 h -247 a 17.3 16.4 0 0 1 -14 -24.3 l 57.3 -96 h 19.2 l -57.7 97.2 a 6 5 0 0 0 5 7 h 228 a 6 5 0 0 0 5 -7 l -115.6 -194 a 4.5 4.5 0 0 0 -7 0 l -57.8 97 z" />
  <path d="M 122 96 l 17.3 1.3 a 1.1 1.1 0 0 0 1 -1.5 l -5 -5 a 13 13 0 0 1 -2.5 -13 l 1 -2.7 a 3 3 0 0 1 6.4 2.4 l -1 4.5 a 5 5 0 0 0 0.7 4.1 l 1.7 2.7 a 1 1 0 0 0 1.5 0 l 1.4 -5.7 a 3 3 0 0 1 6.4 1.1 l -0.4 2 a 0.8 0.8 0 0 0 1 1 l 9 -8.7 a 2 3 0 0 0 1 -2 v-5 a 3 3 0 0 1 6 0.7 v6 a 2 3 0 0 1 -1 2.5 l -18 16.3 a 1.5 1 0 0 0 1.5 1.5 h5 a 2 2 0 0 1 1 5.5 l -2.9 0.7 a 1.5 1.5 0 0 0 -1 2 l 4.9 21 a 10 10 0 0 0 5 6.5 l 40 25 a 5.5 5.5 0 0 1 1.8 8 l -8 16 a 7 7 0 0 0 0 5 l 5 5 a 19 19 0 0 1 4.2 7 l 8.9 24.8 a 2 2 0 0 1 -7.7 2.4 l -7.9 -20.7 a 18 18 0 0 0 -14 -12.5 a 3 3 0 0 1 -2.2 -2 l -3.2 -10.6 a 14 14 0 0 0 -6 -6 l -29.5 -17.9 a 3 3 0 0 0 -2.9 0 a 8 8 0 0 1 -8 0 l -15 -9.5 a 1.6 1.6 0 0 0 -2.5 0.5 l -3.5 26 a 3 3 0 0 1 -9.1 -1.3 l 4.5 -32 a 6 6 0 0 1 9 -4.8 l 14 9 a 0.8 0.8 0 0 0 1 -0.5 l 3 -25 a 9 9 0 0 0 -1.5 -7 l -15.5 -12 a 3 3 0 0 1 2 -5.2 z" />
  <path d="M 132 162 l 8.5 3.4 -7 14 a 6.5 6.5 0 0 0 0.5 4 l 5.5 18.5 a 3 3 0 0 1 -8.6 3 l -6.6 -23 a 7.5 7.5 0 0 1 0 -5 z" />
  <path d="M 184 196.7 l 9 5.4 0 17 a 3 3 0 0 1 -9 0 z" /></svg>