<svg width="300px" height="263px" version="1.1" xmlns="http://www.w3.org/2000/svg" xmlns:xlink="http://www.w3.org/1999/xlink">
  <title>Знак 1.19 - Опасная обочина</title>
  <desc>Этот векторный рисунок принадлежит сайту ruspdd.com.</desc>
  <path fill="#fff" stroke="#000" stroke-width="4" d="M 62 130 l 67.5 -114 a 23 23 0 0 1 41 0 l 122 208 a 24 23 0 0 1 -22 35 h -242 a 24 23 0 0 1 -22 -35 z" />
  <path fill="#e61e21" d="M 69.3 132 l 67.5 -114 a 15 15 0 0 1 26.2 0 l 124 210 a 17.3 16.4 0 0 1 -14 24.3 h -247 a 17.3 16.4 0 0 1 -14 -24.3 l 57.3 -96 h 19.2 l -57.7 97.2 a 6 5 0 0 0 5 7 h 228 a 6 5 0 0 0 5 -7 l -115.6 -194 a 4.5 4.5 0 0 0 -7 0 l -57.8 97 z" />
  <path d="M 67.5 194.5 v17 h79 v-17 z" />
  <path id="w" d="M 182.5 185 l -1 10.5 a 7 7 0 0 0 13.5 1.6 l 1 -10.5 z" />
  <use xlink:href="#w" x="-51" y="-6.25" />
  <path d="M 129 165 l 1.2 -10 a 6.5 6.5 0 0 1 4.3 -3.5 3.5 3.5 0 0 0 2 -2 l 7.9 -17 a 5 5 0 0 1 4 -2.7 l 42.5 5.2 a 5 5 0 0 1 4.8 4 l 3.3 18.2 a 3.5 3.5 0 0 0 1.8 2.2 5 5 0 0 1 3 3.5 l -1.9 18 a 5 5 0 0 1 -6 4.5 l -62.6 -7.6 a 5 5 0 0 1 -5 -5 z" />
  <path fill="#fff" d="M 145.3 144 l 3.3 -7 a 2 2 0 0 1 2 -1 l 39.2 4.8 a 2 2 0 0 1 1 2 l 2.6 14 a 1.5 1.5 0 0 1 -1 1 l -49.2 -5.9 a 1.5 1.5 0 0 1 -1 -1 z" />
  <circle cx="152" cy="212" r="3.1" />
  <circle cx="154" cy="197.15" r="2.5" />
  <circle cx="165.6" cy="199.1" r="2.8" />
  <circle cx="163.8" cy="207.1" r="4" />
  <circle cx="176" cy="204.1" r="3.6" />
  <circle cx="177.3" cy="212.8" r="3.2" />
  <circle cx="191.5" cy="215" r="4.1" />
  <circle cx="198.4" cy="205" r="2.8" /></svg>