<svg width="300px" height="300px" version="1.1" xmlns="http://www.w3.org/2000/svg" xmlns:xlink="http://www.w3.org/1999/xlink">
  <title>Знак 5.14.2 - Полоса для велосипедистов</title>
  <desc>Этот векторный рисунок принадлежит сайту ruspdd.com.</desc>
  <defs>
    <pattern id="p" width="1" height="1">
      <rect width="100%" height="100%" fill="#0984ca" />
      <path fill="#fff" d="M 140 19 l -39 67 h25 v48 h28 v-48 h25 z" />
      <path fill="#fff" d="M 171 193 l 23.4 34.1 -37.8 0 14.4 -34 z m -60 -4.4 h54 l -15.6 37.1 -41.3 -31.4 2.9 -5.6 z m -13.9 -25.3 v1.1 c 0 9.6 9.9 8.9 9.9 14 v0.4 c 0 1.5 -5 11.4 -6 13.7 -1.6 4 -5.3 9.9 -6.4 13.5 -0.9 3.2 -4.6 10.4 -6.2 13.6 -1.7 3.5 -1.6 2.9 -4.9 4.9 -1.5 0.9 -5.6 2.5 -5.6 4.4 v1.3 c 0 1.2 1.4 2.4 2.6 2.4 h0.4 c 1.5 0 7.8 -3.8 9 -4.8 3.1 -2.4 3.6 -5 5.4 -8.6 1.5 -3 2.7 -6.3 4.4 -9.3 0.7 -1.4 4 -8.3 4.3 -9.7 0.9 0.2 20.2 15.2 22.8 17.2 3.8 2.9 7.5 5.6 11.3 8.6 2.1 1.6 9.4 8 11.9 8 h48.6 c 2.8 0 5.5 -1.4 5.5 -4.1 0 -2.6 -5.7 -9.6 -7.2 -11.8 -2.4 -3.7 -5.3 -7.6 -8 -11.3 -5.4 -7.5 -11 -14.7 -16.1 -22.5 l 3 -7.2 c 3.6 0 6.6 -0.9 6.6 -4.4 v-0.8 c 0 -2.4 -2.4 -4.4 -4.8 -4.4 h-21.3 c -2.5 0 -5.2 1.9 -5.2 4.4 0 2.9 2 5.2 4.8 5.2 h13.8 c 0 0.9 -1.4 4.4 -2.2 4.4 h-54.7 c 2.8 -12.2 -9.6 -11.5 -9.6 -17.8 0 -9.8 23.7 -0.1 23.7 -7.2 v-1.1 c 0 -1.4 -1.7 -2.6 -3.3 -2.6 h-14.7 c -6.3 0 -11.8 4.3 -11.8 10.5 z" />
      <circle id="w" cx="82" cy="230" r="29" fill="none" stroke="#fff" stroke-width="6" />
      <use xlink:href="#w" x="116" />
    </pattern>
  </defs>
  <rect x="2" y="2" rx="20" ry="20" width="296px" height="296px" fill="#fff" stroke="#000" stroke-width="4" />
  <rect x="10" y="10" rx="15" ry="15" width="280px" height="280px" fill="url(#p)" /></svg>