<svg width="300px" height="263px" version="1.1" xmlns="http://www.w3.org/2000/svg" xmlns:xlink="http://www.w3.org/1999/xlink">
  <title>Знак 1.32 - Затор</title>
  <desc>Этот векторный рисунок принадлежит сайту ruspdd.com.</desc>
  <path fill="#fff" stroke="#000" stroke-width="4" d="M 62 130 l 67.5 -114 a 23 23 0 0 1 41 0 l 122 208 a 24 23 0 0 1 -22 35 h -242 a 24 23 0 0 1 -22 -35 z" />
  <path fill="#e61e21" d="M 69.3 132 l 67.5 -114 a 15 15 0 0 1 26.2 0 l 124 210 a 17.3 16.4 0 0 1 -14 24.3 h -247 a 17.3 16.4 0 0 1 -14 -24.3 l 57.3 -96 h 19.2 l -57.7 97.2 a 6 5 0 0 0 5 7 h 228 a 6 5 0 0 0 5 -7 l -115.6 -194 a 4.5 4.5 0 0 0 -7 0 l -57.8 97 z" />
  <path d="M 120 130 h23.5 a 5.5 5.5 0 0 1 5 5 l 2.7 9 a 1 1 0 0 0 1 1 h22.5 a 5.5 5.5 0 0 1 5 5 l 2.7 8.7 a 1 1 0 0 0 1 1 h22.3 a 5.5 5.5 0 0 1 5 5 l 5.3 17 a 1 1 0 0 0 1 1 4 4 0 0 1 4 4 v18 a 4.5 4.5 0 0 1 -4 4 h-64.8 a 4.5 4.5 0 0 1 -4 -4 v-14 a 1 1 0 0 0 -1 -1 h-20.7 a 4.5 4.5 0 0 1 -4 -4 v-14.5 a 1 1 0 0 0 -1 -1 h-21.2 a 4.3 4.3 0 0 1 -3.5 -3.5 v-15 a 3 3 0 0 1 2.8 -2.5 1 1 0 0 0 1 -1 l 4.7 -14 a 6 6 0 0 1 4.2 -4.2 z" />
  <path fill="#fff" d="M 160 182 a 1 1 0 0 1 -1 -1 l 4.6 -13.5 a 4 4 0 0 1 2 -2 h38 a 4 4 0 0 1 2 2 l 4.6 13.5 a 1 1 0 0 1 -1 1 z" />
  <path fill="#fff" d="M 133.5 166 a 1 1 0 0 1 -1 -1 l 4.5 -12.5 a 4 4 0 0 1 2 -2 h33.5 a 4 4 0 0 1 2 2 l 2 6 a 1 1 0 0 1 -1 1 h-12 a 6 6 0 0 0 -5 5 l -0.3 1 a 1 1 0 0 1 -1 1 z" />
  <path fill="#fff" d="M 107 149 a 1 1 0 0 1 -1 -1 l 3.5 -11 a 4 4 0 0 1 2 -2 h30.7 a 4 4 0 0 1 2 2 l 1.8 6.7 a 1 1 0 0 1 -1 1 h-8.8 a 5 5 0 0 0 -3.3 3.3 a 1 1 0 0 1 -1 1 z" />
  <path id="w" d="M 152.7 210 h14 v9 a 7 7 0 0 1 -14 0 z" />
  <use xlink:href="#w" x="50" />
  <path d="M 126.4 191 h13 v7.5 a 5 5 0 0 1 -13 0 z" />
  <path d="M 100 171.4 h12.2 v6.7 a 5 5 0 0 1 -12.2 0 z" />
<text x="50%" y="95%" dx="1,1,1,1,1,1,1,1,1,1" fill="white" fill-opacity="20%" stroke-opacity="5%" stroke="black" stroke-width="2" text-anchor="middle" font-size="30px" font-weight="bold" font-family="Arial">ruspdd.com</text></svg>