<svg width="300px" height="300px" version="1.1" xmlns="http://www.w3.org/2000/svg" xmlns:xlink="http://www.w3.org/1999/xlink">
  <title>Знак 3.21 - Конец зоны запрещения обгона</title>
  <desc>Этот векторный рисунок принадлежит сайту ruspdd.com.</desc>
  <defs>
    <pattern id="p" width="1" height="1">
      <path fill="#c0c0c0" id="k" d="M 148 137 a 8 8 0 0 1 5 -7 l 7.5 -24 a 9 9 0 0 1 7 -7 h53.6 a 9 9 0 0 1 7 7 l 7.5 24 a 8 8 0 0 1 5 7 v20 a 9 9 0 0 1 -9 7 h-74.6 a 9 9 0 0 1 -9 -7 z" />
      <use xlink:href="#k" x="-112.5" />
      <path fill="#fff" id="o" d="M 161.75 130.4 a 1 1 0 0 1 -1 -1 l 7 -21.5 a 4 4 0 0 1 2 -2 h49 a 4 4 0 0 1 2 2 l 7 21.5 a 1 1 0 0 1 -1 1 z" />
      <use xlink:href="#o" x="-112.5" />
      <path fill="#c0c0c0" id="w" d="M 153.7 166.5 h17 v11 a 8 8 0 0 1 -17 0 z" />
      <use xlink:href="#w" x="63" />
      <use xlink:href="#w" x="-112" />
      <use xlink:href="#w" x="-49" />
      <path fill="none" stroke="#000" stroke-width="1000" stroke-dasharray="6,8.15" d="M 116.9 116.9 l 47 47" />
    </pattern>
  </defs>
  <circle cx="150" cy="150" r="148" fill="#fff" stroke="#000" stroke-width="4" />
  <circle cx="150" cy="150" r="139" fill="url(#p)" stroke="#000" stroke-width="6" /></svg>