<svg width="300px" height="263px" version="1.1" xmlns="http://www.w3.org/2000/svg" xmlns:xlink="http://www.w3.org/1999/xlink">
  <title>Знак 1.21 - Двустороннее движение</title>
  <desc>Этот векторный рисунок принадлежит сайту ruspdd.com.</desc>
  <path fill="#fff" stroke="#000" stroke-width="4" d="M 62 130 l 67.5 -114 a 23 23 0 0 1 41 0 l 122 208 a 24 23 0 0 1 -22 35 h -242 a 24 23 0 0 1 -22 -35 z" />
  <path fill="#e61e21" d="M 69.3 132 l 67.5 -114 a 15 15 0 0 1 26.2 0 l 124 210 a 17.3 16.4 0 0 1 -14 24.3 h -247 a 17.3 16.4 0 0 1 -14 -24.3 l 57.3 -96 h 19.2 l -57.7 97.2 a 6 5 0 0 0 5 7 h 228 a 6 5 0 0 0 5 -7 l -115.6 -194 a 4.5 4.5 0 0 0 -7 0 l -57.8 97 z" />
  <path d="M 163.3 229.5 v-85.5 h-19 l 31 -50 31 50 h-19 v85.5 z m -37.3 0 l 31 -50 h-19 v-85.5 h-24 v85.5 h-19 z" /></svg>